<?xml version="1.0" encoding="utf-8" ?>
<svg baseProfile="full" height="200mm" version="1.1" viewBox="0,0,200,200" width="200mm" xmlns="http://www.w3.org/2000/svg" xmlns:ev="http://www.w3.org/2001/xml-events" xmlns:xlink="http://www.w3.org/1999/xlink"><defs /><rect fill="#1a1a1a" height="200" width="200" x="0" y="0" /><text alignment-baseline="middle" fill="#e1ed5e" style="dominant-baseline: central; font-size:9.0px; font-family:Arial;" text-anchor="middle" x="100.0" y="100.0">2018</text><line stroke="#e1ed5e" stroke-width="0.3" x1="100.0" x2="100.0" y1="15.0" y2="10.0" /><path d="M 100.0 14.0 a86.0,86.0 0 0,1 42.46469731375804,11.215312516191453" fill="none" id="id13" stroke="none" /><text fill="#e1ed5e" style="font-size:6.75px; font-family:Arial;" text-anchor="middle"><textPath startOffset="22.20632615414155" xlink:href="#id13">January</textPath></text><line stroke="#e1ed5e" stroke-width="0.3" x1="143.23703022742887" x2="145.7803849466894" y1="26.818313649435467" y2="22.513508569990506" /><path d="M 143.74570117128098 25.957352633546478 a86.0,86.0 0 0,1 28.547481713284135,27.462654790039114" fill="none" id="id14" stroke="none" /><text fill="#e1ed5e" style="font-size:6.75px; font-family:Arial;" text-anchor="middle"><textPath startOffset="19.985693538727396" xlink:href="#id14">February</textPath></text><path d="M 117.65298651832404 88.62581576622439 l 26.394031954836095 -17.006220551680798 a52.39835123514162,52.39835123514162 0 0,0 0.4819959743257621,0.76240187979975 l -26.68285552540781 16.54937102416684" fill="#a6ff21" stroke="none" /><line stroke="#e1ed5e" stroke-width="0.3" x1="172.23445277983987" x2="176.4835382374775" y1="55.19839476539836" y2="52.563006222186495" /><path d="M 173.08426987136738 54.67131705675599 a86.0,86.0 0 0,1 12.851231095245387,41.99856678651699" fill="none" id="id15" stroke="none" /><text fill="#e1ed5e" style="font-size:6.75px; font-family:Arial;" text-anchor="middle"><textPath startOffset="22.20632615414155" xlink:href="#id15">March</textPath></text><path d="M 117.84615892207809 88.93136811851018 l 21.332673346037527 -13.231054892335553 a46.1026645130101,46.1026645130101 0 0,0 0.4124743961383302,0.6779994544114177 l -21.55726354046208 12.861887664717054" fill="#f7ff18" stroke="none" /><path d="M 119.61058180528143 92.48833698450437 l 23.240983269986284 -8.90225676149456 a45.887616977190845,45.887616977190845 0 0,0 0.27618972526246877,0.7400511508111669 l -23.390777583750378 8.500882473654059" fill="#faff18" stroke="none" /><path d="M 120.6074358757038 95.95851677861258 l 60.343129602940465 -11.834356651029102 a82.49264417490133,82.49264417490133 0 0,0 0.2612827861931012,1.395783091591553 l -60.537898113043425 10.793895481974985" fill="#4be1ff" stroke="none" /><path d="M 120.67395015179393 96.31383870115 l 25.68409268169857 -4.57946873936611 a47.08915772532554,47.08915772532554 0 0,0 0.13541078941014376,0.7992021442639573 l -25.759115332628937 4.136680806786315" fill="#eaff1a" stroke="none" /><path d="M 120.83666639777658 97.38593545837742 l 43.61840122723862 -5.472147695494997 a64.96031535398356,64.96031535398356 0 0,0 0.12964113739338068,1.1106860946780956 l -43.70613271763559 4.720517862492049" fill="#33ff4f" stroke="none" /><path d="M 120.94382443527127 98.46500227214037 l 19.276205736546657 -1.412775975982856 a40.32790841131002,40.32790841131002 0 0,0 0.044782047151419535,0.6927584484292317 l -19.297668374702493 1.080758463300589" fill="#ffb610" stroke="none" /><line stroke="#e1ed5e" stroke-width="0.3" x1="184.98032266829074" x2="189.97916517819016" y1="98.17113171792111" y2="98.06355123074" /><path d="M 185.9800911702706 98.14961562048488 a86.0,86.0 0 0,1 -9.607161424134198,41.387399972396054" fill="none" id="id16" stroke="none" /><text fill="#e1ed5e" style="font-size:6.75px; font-family:Arial;" text-anchor="middle"><textPath startOffset="21.466115282336823" xlink:href="#id16">April</textPath></text><path d="M 120.02730092923936 106.31721596034902 l 13.748972506725913 4.336841437833609 a35.41674160993446,35.41674160993446 0 0,0 -0.18839640388499998,0.5798245106998885 l -13.672283851824666 -4.572864848511293" fill="#ff6e0a" stroke="none" /><line stroke="#e1ed5e" stroke-width="0.3" x1="174.80103733775053" x2="179.2010983576182" y1="140.37084112569926" y2="142.7455964860345" /><path d="M 175.68104954172406 140.8457921977663 a86.0,86.0 0 0,1 -30.038265399797805,32.042727171017184" fill="none" id="id17" stroke="none" /><text fill="#e1ed5e" style="font-size:6.75px; font-family:Arial;" text-anchor="middle"><textPath startOffset="22.206326154141568" xlink:href="#id17">May</textPath></text><path d="M 117.94076556474637 110.91462005526583 l 21.32294894830757 12.972238302133862 a45.95890859832376,45.95890859832376 0 0,0 -0.4169903433451849,0.6723212060882495 l -21.096493965294425 -13.337355839587381" fill="#f9ff18" stroke="none" /><path d="M 117.14729908036423 112.12312394758627 l 21.918566412305935 15.496405359493025 a47.84328840951477,47.84328840951477 0 0,0 -0.48121282434722024,0.6683625249552819 l -21.648573795583115 -15.87140148989944" fill="#e0ff1b" stroke="none" /><path d="M 115.56566222782051 114.09645910891815 l 19.502515686133904 17.66172301999868 a47.31130133845626,47.31130133845626 0 0,0 -0.5518606288215028,0.5989357187878294 l -19.195608649316675 -17.994809993587847" fill="#e7ff1a" stroke="none" /><path d="M 113.20401910651253 116.32954008644616 l 23.32553120298637 28.84691348476997 a58.097504275884845,58.097504275884845 0 0,0 -0.7830506322433743,0.622102780599461 l -22.825523078025643 -29.24415017937456" fill="#62ff29" stroke="none" /><path d="M 112.34349029814194 116.9893568818739 l 14.975139950515043 20.611511884414483 a46.47722980818109,46.47722980818109 0 0,0 -0.6512846957064249,0.46467433770535793 l -14.618127926959733 -20.86623048396406" fill="#f2ff19" stroke="none" /><line stroke="#e1ed5e" stroke-width="0.3" x1="143.8653032363475" x2="146.44561519142675" y1="172.8068346515853" y2="177.08958963109032" /><path d="M 144.38136562736335 173.6633856474863 a86.0,86.0 0 0,1 -40.68145358897372,12.25698825130547" fill="none" id="id18" stroke="none" /><text fill="#e1ed5e" style="font-size:6.75px; font-family:Arial;" text-anchor="middle"><textPath startOffset="21.466115282336833" xlink:href="#id18">June</textPath></text><path d="M 110.5260780823613 118.17145234162733 l 25.702474807069493 44.37087511265808 a72.27759519976675,72.27759519976675 0 0,0 -1.0819310083341516,0.6143486631969393 l -24.934895031814143 -44.80672694164964" fill="#3dffab" stroke="none" /><path d="M 109.2508944713604 118.85261126421891 l 11.029646284485922 22.477570620548995 a46.03785690035474,46.03785690035474 0 0,0 -0.7144359217258897,0.3429726586278965 l -10.6410976947598 -22.66409755567645" fill="#f8ff18" stroke="none" /><path d="M 108.2653958097858 119.30500536409082 l 24.7961874293574 57.91501609227246 a84.0,84.0 0 0,0 -1.3341141620101509,0.5576598279201073 l -23.79560180784979 -58.33326096321254" fill="#4dd2ff" stroke="none" /><path d="M 107.93186726928326 119.44442032107085 l 18.649867108444177 45.7188506410132 a70.37641995019385,70.37641995019385 0 0,0 -1.125616962137945,0.4479062193212902 l -17.860129070264364 -46.03310370474056" fill="#3aff94" stroke="none" /><path d="M 106.57524785965236 119.94407469862006 l 11.632098855250362 35.28254043386154 a58.15055024148891,58.15055024148891 0 0,0 -0.9533330104457854,0.3052271246805255 l -11.023044499713636 -35.47754040520177" fill="#61ff29" stroke="none" /><path d="M 104.13013068566511 120.58985236759428 l 4.866498955877882 24.26085339051232 a45.744126966282195,45.744126966282195 0 0,0 -0.7733641198178104,0.14821707418520141 l -4.448167221488368 -24.341027663045992" fill="#fcff18" stroke="none" /><path d="M 101.62511606390274 120.93702456842531 l 2.056044770313254 26.488852597058255 a47.56852709515927,47.56852709515927 0 0,0 -0.8169039183529,0.05633847703707409 l -1.5997780911814241 -26.520319418611614" fill="#e4ff1a" stroke="none" /><line stroke="#e1ed5e" stroke-width="0.3" x1="102.19456741930631" x2="102.32365962044197" y1="184.97166512339345" y2="189.96999836594603" /><path d="M 102.22038585953345 185.97133177190398 a86.0,86.0 0 0,1 -42.740103519485714,-10.115201625700543" fill="none" id="id19" stroke="none" /><text fill="#e1ed5e" style="font-size:6.75px; font-family:Arial;" text-anchor="middle"><textPath startOffset="22.20632615414155" xlink:href="#id19">July</textPath></text><path d="M 99.09653310690486 120.98055641714683 l -1.340377265298282 31.126609120684503 a52.15545548640251,52.15545548640251 0 0,0 -0.8966067489485936,-0.04634432751341182 l 1.8759720826603645 -31.09892498640889" fill="#a9ff21" stroke="none" /><path d="M 98.01472825383883 120.90594882070398 l -1.0393070244725577 10.94444602087106 a31.99368263116952,31.99368263116952 0 0,0 -0.5478040661292545,-0.05678213128998317 l 1.2275436872074057 -10.924934521125316" fill="#ff3905" stroke="none" /><path d="M 97.2962882734958 120.8252237178851 l -0.9597155414380806 7.392167833595496 a28.454206812298793,28.454206812298793 0 0,0 -0.4851732342829102,-0.067240589363029 l 1.0868173669078212 -7.374552678739863" fill="#ff0000" stroke="none" /><path d="M 96.58105272829116 120.7198165907248 l -1.4155763915746529 8.578805366871594 a29.694812133855933,29.694812133855933 0 0,0 -0.5036113277817648,-0.08755928466095396 l 1.563036690828467 -8.553167503689634" fill="#ff1402" stroke="none" /><path d="M 96.22490169976321 120.6578951692458 l -1.4817573634253953 8.10839502589372 a29.242674006656056,29.242674006656056 0 0,0 -0.4943855385183518,-0.09475016510453832 l 1.621110516515442 -8.081687662440714" fill="#ff0d01" stroke="none" /><path d="M 95.86986931433489 120.58985236759428 l -8.374463162965453 41.749032489887895 a63.58066870200115,63.58066870200115 0 0,0 -1.0712087368951104,-0.2244822059838368 l 9.09186336128995 -41.59869430317752" fill="#31ff3c" stroke="none" /><path d="M 95.16358092515715 120.4354850818985 l -5.993565695608586 25.324815832665955 a47.02439483842082,47.02439483842082 0 0,0 -0.7860837783317121,-0.1932002673906273 l 6.428602758683509 -25.217894306961295" fill="#ebff1a" stroke="none" /><path d="M 92.06813273071674 119.44442032107085 l -9.757592472629174 23.920058533286976 a46.83369526602388,46.83369526602388 0 0,0 -0.7438273346865528,-0.31091988622516215 l 10.167891266813188 -23.74855360404184" fill="#edff19" stroke="none" /><line stroke="#e1ed5e" stroke-width="0.3" x1="58.666819895761336" x2="56.23545636021788" y1="174.27360380694188" y2="178.64263932499728" /><path d="M 58.180547188652646 175.14741091055294 a86.0,86.0 0 0,1 -31.652253787137756,-30.449443065178592" fill="none" id="id20" stroke="none" /><text fill="#e1ed5e" style="font-size:6.75px; font-family:Arial;" text-anchor="middle"><textPath startOffset="22.20632615414155" xlink:href="#id20">August</textPath></text><path d="M 88.54995079064634 117.60387380957326 l -14.160739888290438 21.77142416471124 a46.97155105771684,46.97155105771684 0 0,0 -0.6739865130056092,-0.446681509458868 l 14.53340110003601 -21.524444634161053" fill="#ecff1a" stroke="none" /><path d="M 87.65650970185807 116.9893568818739 l -22.199567192261732 30.555082925714068 a58.76815955432574,58.76815955432574 0 0,0 -0.8132814489203289,-0.6016461730978059 l 22.722233611600625 -30.168426803876493" fill="#5aff2a" stroke="none" /><path d="M 84.9287848128048 114.62390073753433 l -22.66635256430475 21.99361404274642 a52.582947886963574,52.582947886963574 0 0,0 -0.6247190955704334,-0.6550154741115682 l 23.04157821125414 -21.600191452052353" fill="#a3ff21" stroke="none" /><line stroke="#e1ed5e" stroke-width="0.3" x1="26.63291911575756" x2="22.317208475507996" y1="142.92168965132927" y2="145.44649492493687" /><path d="M 25.769776987707644 143.4266507060508 a86.0,86.0 0 0,1 -11.730757126820373,-40.83630448921669" fill="none" id="id21" stroke="none" /><text fill="#e1ed5e" style="font-size:6.75px; font-family:Arial;" text-anchor="middle"><textPath startOffset="21.46611528233685" xlink:href="#id21">September</textPath></text><line stroke="#e1ed5e" stroke-width="0.3" x1="15.007084014347285" x2="10.007500721073583" y1="101.09737516637583" y2="101.16192664675087" /><path d="M 14.007167355692545 101.11028546245083 a86.0,86.0 0 0,1 10.666146001902526,-42.60595125391555" fill="none" id="id22" stroke="none" /><text fill="#e1ed5e" style="font-size:6.75px; font-family:Arial;" text-anchor="middle"><textPath startOffset="22.20632615414155" xlink:href="#id22">October</textPath></text><line stroke="#e1ed5e" stroke-width="0.3" x1="26.266209847984243" x2="21.928928074336255" y1="57.71137044288968" y2="55.22380399835378" /><path d="M 25.398753493254645 57.2138571539825 a86.0,86.0 0 0,1 29.58750427330803,-30.4925239686951" fill="none" id="id23" stroke="none" /><text fill="#e1ed5e" style="font-size:6.75px; font-family:Arial;" text-anchor="middle"><textPath startOffset="21.46611528233685" xlink:href="#id23">November</textPath></text><line stroke="#e1ed5e" stroke-width="0.3" x1="56.76296977257108" x2="54.21961505331056" y1="26.818313649435495" y2="22.513508569990535" /><path d="M 56.25429882871898 25.957352633546506 a86.0,86.0 0 0,1 42.26535254187918,-11.944610805530505" fill="none" id="id24" stroke="none" /><text fill="#e1ed5e" style="font-size:6.75px; font-family:Arial;" text-anchor="middle"><textPath startOffset="22.20632615414155" xlink:href="#id24">December</textPath></text><path d="M 95.692805502759 79.44645832069477 l -3.803878730356007 -18.151764466980875 a39.54605205050402,39.54605205050402 0 0,0 0.6674499628409357,-0.1338841835026451 l 3.4908623580479348 18.21455260656073" fill="#ffab0f" stroke="none" /><path d="M 97.11714578562143 79.19881850522333 l -3.659102217275721 -26.402184664720956 a47.654537777018355,47.654537777018355 0 0,0 0.8134976148965238,-0.10561533795144894 l 3.20408987387134 26.461258325836543" fill="#e3ff1b" stroke="none" /></svg>