<?xml version="1.0" encoding="utf-8" ?>
<svg baseProfile="full" height="200mm" version="1.1" viewBox="0,0,200,200" width="200mm" xmlns="http://www.w3.org/2000/svg" xmlns:ev="http://www.w3.org/2001/xml-events" xmlns:xlink="http://www.w3.org/1999/xlink"><defs /><rect fill="#1a1a1a" height="200" width="200" x="0" y="0" /><text alignment-baseline="middle" fill="#e1ed5e" style="dominant-baseline: central; font-size:9.0px; font-family:Arial;" text-anchor="middle" x="100.0" y="100.0">2022</text><line stroke="#e1ed5e" stroke-width="0.3" x1="100.0" x2="100.0" y1="15.0" y2="10.0" /><path d="M 100.0 14.0 a86.0,86.0 0 0,1 42.46469731375804,11.215312516191453" fill="none" id="id61" stroke="none" /><text fill="#e1ed5e" style="font-size:6.75px; font-family:Arial;" text-anchor="middle"><textPath startOffset="22.20632615414155" xlink:href="#id61">January</textPath></text><path d="M 101.08401301168833 79.027996857942 l 1.2557230059541198 -24.294013579604567 a45.32644520010463,45.32644520010463 0 0,0 0.7788334104471124,0.0469813582199565 l -1.673718465240844 24.268798952004307" fill="#ff0000" stroke="none" /><line stroke="#e1ed5e" stroke-width="0.3" x1="143.23703022742887" x2="145.7803849466894" y1="26.81831364943548" y2="22.513508569990506" /><path d="M 143.74570117128098 25.957352633546492 a86.0,86.0 0 0,1 28.547481713284135,27.462654790039103" fill="none" id="id62" stroke="none" /><text fill="#e1ed5e" style="font-size:6.75px; font-family:Arial;" text-anchor="middle"><textPath startOffset="19.985693538727396" xlink:href="#id62">February</textPath></text><line stroke="#e1ed5e" stroke-width="0.3" x1="172.23445277983987" x2="176.4835382374775" y1="55.19839476539836" y2="52.563006222186495" /><path d="M 173.08426987136738 54.67131705675599 a86.0,86.0 0 0,1 12.851231095245387,41.99856678651699" fill="none" id="id63" stroke="none" /><text fill="#e1ed5e" style="font-size:6.75px; font-family:Arial;" text-anchor="middle"><textPath startOffset="22.20632615414155" xlink:href="#id63">March</textPath></text><line stroke="#e1ed5e" stroke-width="0.3" x1="184.98032266829074" x2="189.97916517819016" y1="98.17113171792111" y2="98.06355123074" /><path d="M 185.9800911702706 98.14961562048488 a86.0,86.0 0 0,1 -9.607161424134198,41.387399972396054" fill="none" id="id64" stroke="none" /><text fill="#e1ed5e" style="font-size:6.75px; font-family:Arial;" text-anchor="middle"><textPath startOffset="21.466115282336823" xlink:href="#id64">April</textPath></text><line stroke="#e1ed5e" stroke-width="0.3" x1="174.80103733775053" x2="179.2010983576182" y1="140.37084112569926" y2="142.7455964860345" /><path d="M 175.68104954172406 140.8457921977663 a86.0,86.0 0 0,1 -30.038265399797805,32.042727171017184" fill="none" id="id65" stroke="none" /><text fill="#e1ed5e" style="font-size:6.75px; font-family:Arial;" text-anchor="middle"><textPath startOffset="22.206326154141568" xlink:href="#id65">May</textPath></text><path d="M 113.48314897796784 116.09983520530334 l 20.193737567241545 24.112753448247744 a52.45173947161915,52.45173947161915 0 0,0 -0.6971832045866859,0.5737343133839296 l -19.775684234110166 -24.456782880488852" fill="#ff9f0e" stroke="none" /><path d="M 112.92097659922987 116.55440617244103 l 24.247653107631425 31.06618878143525 a60.4088412241695,60.4088412241695 0 0,0 -0.8252171948672455,0.6327413559578162 l -23.709307184270685 -31.47896947922044" fill="#c3ff1e" stroke="none" /><path d="M 112.63410532772338 116.77436683061366 l 23.586558879453673 31.315995921582104 a60.20481297410411,60.20481297410411 0 0,0 -0.8331630239720985,0.6163540870197743 l -23.044010885063013 -31.717359957341646" fill="#c6ff1e" stroke="none" /><path d="M 111.7513745106137 117.40417183066458 l 21.9956783840903 32.57632252150476 a60.306827099136804,60.306827099136804 0 0,0 -0.8653320401754425,0.5734948911143488 l -21.431671645174895 -32.95011543371043" fill="#c4ff1e" stroke="none" /><path d="M 111.1453310114006 117.79835938074945 l 20.83632564180606 33.274239371432124 a60.25974365681402,60.25974365681402 0 0,0 -0.8838692596688494,0.5429446898016522 l -20.2604771822049 -33.62797252806215" fill="#c5ff1e" stroke="none" /><line stroke="#e1ed5e" stroke-width="0.3" x1="143.8653032363475" x2="146.44561519142675" y1="172.8068346515853" y2="177.08958963109032" /><path d="M 144.38136562736335 173.6633856474863 a86.0,86.0 0 0,1 -40.68145358897372,12.25698825130547" fill="none" id="id66" stroke="none" /><text fill="#e1ed5e" style="font-size:6.75px; font-family:Arial;" text-anchor="middle"><textPath startOffset="21.466115282336833" xlink:href="#id66">June</textPath></text><path d="M 110.5260780823613 118.17145234162733 l 23.655257123172078 40.83670803876788 a68.19330368820297,68.19330368820297 0 0,0 -1.0207928143858926,0.5796328010642723 l -22.948815541864985 -41.237844005626776" fill="#3eff2e" stroke="none" /><path d="M 106.2309692047433 120.05430185196036 l 11.649567737413468 37.49399815250299 a60.26209782893016,60.26209782893016 0 0,0 -0.9932485786344217,0.29925764900022084 l -11.0024441843388 -37.68897117060894" fill="#c5ff1e" stroke="none" /><path d="M 104.13013068566511 120.58985236759428 l 12.390392056995317 61.76955710278282 a84.0,84.0 0 0,0 -1.4201295417131825,0.2721712066061275 l -11.32529490071043 -61.973685507737414" fill="#4dd2ff" stroke="none" /><line stroke="#e1ed5e" stroke-width="0.3" x1="102.19456741930631" x2="102.32365962044197" y1="184.97166512339345" y2="189.96999836594603" /><path d="M 102.22038585953345 185.97133177190398 a86.0,86.0 0 0,1 -42.740103519485714,-10.115201625700543" fill="none" id="id67" stroke="none" /><text fill="#e1ed5e" style="font-size:6.75px; font-family:Arial;" text-anchor="middle"><textPath startOffset="22.20632615414155" xlink:href="#id67">July</textPath></text><path d="M 97.65516085044442 120.86867818915974 l -6.339416033419768 56.419747654635735 a77.77478420088934,77.77478420088934 0 0,0 -1.3291065346569166,-0.16093629171189325 l 7.309649991128074 -56.302265834198494" fill="#41ffcb" stroke="none" /><path d="M 95.16358092515715 120.4354850818985 l -11.797096204530547 49.846669564142104 a72.22364635103322,72.22364635103322 0 0,0 -1.2073273245427725,-0.29673168224474517 l 12.65337681381653 -49.63621662358332" fill="#36ff6a" stroke="none" /><path d="M 94.81253420990036 120.34920634021253 l -13.569484706795524 53.2298920902641 a75.9322521579911,75.9322521579911 0 0,0 -1.2637641822888481,-0.3337716067163981 l 14.483739331895862 -52.98842913424412" fill="#3dffac" stroke="none" /><path d="M 94.11515582081647 120.15858648285463 l -10.989689767000385 37.64528079969584 a60.216583834684805,60.216583834684805 0 0,0 -0.9924984104238742,-0.2990316294721065 l 11.636063151864505 -37.45053380111801" fill="#c6ff1e" stroke="none" /><path d="M 93.42475214034765 119.94407469862007 l -12.285131085632733 37.26332106165702 a60.23620193565263,60.23620193565263 0 0,0 -0.9819369093085315,-0.3331263130194379 l 12.92473772787849 -37.04633176173945" fill="#c6ff1e" stroke="none" /><path d="M 92.40401165467489 119.57807347666478 l -19.873439856430547 51.222256809113425 a75.94245357049437,75.94245357049437 0 0,0 -1.2146414089523236,-0.4833308839639214 l 20.75220234142473 -50.872579080743435" fill="#3dffad" stroke="none" /><line stroke="#e1ed5e" stroke-width="0.3" x1="58.666819895761336" x2="56.23545636021788" y1="174.27360380694188" y2="178.64263932499728" /><path d="M 58.180547188652646 175.14741091055294 a86.0,86.0 0 0,1 -31.652253787137756,-30.449443065178592" fill="none" id="id68" stroke="none" /><text fill="#e1ed5e" style="font-size:6.75px; font-family:Arial;" text-anchor="middle"><textPath startOffset="22.20632615414155" xlink:href="#id68">August</textPath></text><line stroke="#e1ed5e" stroke-width="0.3" x1="26.63291911575756" x2="22.317208475507996" y1="142.92168965132927" y2="145.44649492493687" /><path d="M 25.769776987707644 143.4266507060508 a86.0,86.0 0 0,1 -11.730757126820373,-40.83630448921669" fill="none" id="id69" stroke="none" /><text fill="#e1ed5e" style="font-size:6.75px; font-family:Arial;" text-anchor="middle"><textPath startOffset="21.46611528233685" xlink:href="#id69">September</textPath></text><line stroke="#e1ed5e" stroke-width="0.3" x1="15.007084014347285" x2="10.007500721073583" y1="101.09737516637583" y2="101.16192664675087" /><path d="M 14.007167355692545 101.11028546245083 a86.0,86.0 0 0,1 10.666146001902534,-42.60595125391555" fill="none" id="id70" stroke="none" /><text fill="#e1ed5e" style="font-size:6.75px; font-family:Arial;" text-anchor="middle"><textPath startOffset="22.20632615414155" xlink:href="#id70">October</textPath></text><line stroke="#e1ed5e" stroke-width="0.3" x1="26.266209847984243" x2="21.928928074336255" y1="57.711370442889674" y2="55.22380399835377" /><path d="M 25.398753493254645 57.213857153982495 a86.0,86.0 0 0,1 29.58750427330803,-30.492523968695096" fill="none" id="id71" stroke="none" /><text fill="#e1ed5e" style="font-size:6.75px; font-family:Arial;" text-anchor="middle"><textPath startOffset="21.46611528233685" xlink:href="#id71">November</textPath></text><line stroke="#e1ed5e" stroke-width="0.3" x1="56.762969772571076" x2="54.21961505331055" y1="26.818313649435495" y2="22.513508569990535" /><path d="M 56.25429882871897 25.957352633546506 a86.0,86.0 0 0,1 42.265352541879196,-11.944610805530505" fill="none" id="id72" stroke="none" /><text fill="#e1ed5e" style="font-size:6.75px; font-family:Arial;" text-anchor="middle"><textPath startOffset="22.20632615414155" xlink:href="#id72">December</textPath></text></svg>