<?xml version="1.0" encoding="utf-8" ?>
<svg baseProfile="full" height="200mm" version="1.1" viewBox="0,0,200,200" width="200mm" xmlns="http://www.w3.org/2000/svg" xmlns:ev="http://www.w3.org/2001/xml-events" xmlns:xlink="http://www.w3.org/1999/xlink"><defs /><rect fill="#1a1a1a" height="200" width="200" x="0" y="0" /><text alignment-baseline="middle" fill="#e1ed5e" style="dominant-baseline: central; font-size:9.0px; font-family:Arial;" text-anchor="middle" x="100.0" y="100.0">2017</text><line stroke="#e1ed5e" stroke-width="0.3" x1="100.0" x2="100.0" y1="15.0" y2="10.0" /><path d="M 100.0 14.0 a86.0,86.0 0 0,1 42.46469731375804,11.215312516191453" fill="none" id="id1" stroke="none" /><text fill="#e1ed5e" style="font-size:6.75px; font-family:Arial;" text-anchor="middle"><textPath startOffset="22.20632615414155" xlink:href="#id1">January</textPath></text><line stroke="#e1ed5e" stroke-width="0.3" x1="143.23703022742887" x2="145.7803849466894" y1="26.818313649435467" y2="22.513508569990506" /><path d="M 143.74570117128098 25.957352633546478 a86.0,86.0 0 0,1 28.547481713284135,27.462654790039114" fill="none" id="id2" stroke="none" /><text fill="#e1ed5e" style="font-size:6.75px; font-family:Arial;" text-anchor="middle"><textPath startOffset="19.985693538727396" xlink:href="#id2">February</textPath></text><line stroke="#e1ed5e" stroke-width="0.3" x1="172.23445277983987" x2="176.4835382374775" y1="55.19839476539836" y2="52.563006222186495" /><path d="M 173.08426987136738 54.67131705675599 a86.0,86.0 0 0,1 12.851231095245387,41.99856678651699" fill="none" id="id3" stroke="none" /><text fill="#e1ed5e" style="font-size:6.75px; font-family:Arial;" text-anchor="middle"><textPath startOffset="22.20632615414155" xlink:href="#id3">March</textPath></text><line stroke="#e1ed5e" stroke-width="0.3" x1="184.98032266829074" x2="189.97916517819016" y1="98.17113171792111" y2="98.06355123074" /><path d="M 185.9800911702706 98.14961562048488 a86.0,86.0 0 0,1 -9.607161424134198,41.387399972396054" fill="none" id="id4" stroke="none" /><text fill="#e1ed5e" style="font-size:6.75px; font-family:Arial;" text-anchor="middle"><textPath startOffset="21.466115282336823" xlink:href="#id4">April</textPath></text><path d="M 119.79798401119884 107.00284435728193 l 31.26993584887542 11.060646058103623 a54.16846060967297,54.16846060967297 0 0,0 -0.3184995573327922,0.8763739916630031 l -31.0749120305374 -11.597267846772757" fill="#9aff22" stroke="none" /><path d="M 119.67450827220406 107.3425965602758 l 35.44573395187597 13.228474155015771 a58.83374927042116,58.83374927042116 0 0,0 -0.3622638254108002,0.9457565346924681 l -35.212775846871665 -13.836654256541385" fill="#61ff29" stroke="none" /><path d="M 119.12269723197855 108.67885076344098 l 21.524484852609504 9.768903911909904 a44.63757457545813,44.63757457545813 0 0,0 -0.32357009014712934,0.6969411880303521 l -21.353140145622543 -10.137965167219088" fill="#ffe415" stroke="none" /><line stroke="#e1ed5e" stroke-width="0.3" x1="174.80103733775053" x2="179.2010983576182" y1="140.37084112569926" y2="142.7455964860345" /><path d="M 175.68104954172406 140.8457921977663 a86.0,86.0 0 0,1 -30.038265399797805,32.042727171017184" fill="none" id="id5" stroke="none" /><text fill="#e1ed5e" style="font-size:6.75px; font-family:Arial;" text-anchor="middle"><textPath startOffset="22.206326154141568" xlink:href="#id5">May</textPath></text><path d="M 118.48025628344425 109.97397251340804 l 55.44076885033275 29.921917540224147 a84.0,84.0 0 0,0 -0.6976943621939617,1.2665179264087751 l -54.91749807868728 -30.87180598503073" fill="#4dd2ff" stroke="none" /><path d="M 117.94076556474637 110.91462005526583 l 26.961125788670028 16.402334849288945 a52.55849952549529,52.55849952549529 0 0,0 -0.47686917360007475,0.7688649462937527 l -26.67479197540199 -16.86399612694797" fill="#afff20" stroke="none" /><path d="M 117.14729908036423 112.12312394758627 l 31.355433371168754 22.168261217549553 a59.40045582155653,59.40045582155653 0 0,0 -0.5974560291244287,0.8298141694728222 l -30.969197549668724 -22.704708992473506" fill="#5bff2a" stroke="none" /><path d="M 116.93607887273984 112.41649034213513 l 26.708144257780916 19.580767055050952 a54.11693536785378,54.11693536785378 0 0,0 -0.5572465502042095,0.7465228179282891 l -26.367136440881616 -20.037602752488556" fill="#9bff22" stroke="none" /><path d="M 116.27256486870786 113.27417163493432 l 26.676329009580787 21.760931526172563 a55.42622068008878,55.42622068008878 0 0,0 -0.609435050753129,0.7341037782330838 l -26.297797958934115 -22.216896561519416" fill="#8aff24" stroke="none" /><path d="M 116.0416608686014 113.55231037782055 l 28.84434682982665 24.368271096445177 a58.75988586144265,58.75988586144265 0 0,0 -0.6593908209530912,0.7670204935845734 l -28.42061349930278 -24.86116868919128" fill="#62ff29" stroke="none" /><path d="M 115.80600337817218 113.82643327865902 l 28.603023921194588 25.02073372706177 a59.002238008793064,59.002238008793064 0 0,0 -0.6752697979217143,0.7586727764510233 l -28.168095273624537 -25.50938067325366" fill="#5fff29" stroke="none" /><path d="M 115.56566222782051 114.09645910891815 l 26.40103917408714 23.909112487697563 a56.61826117907862,56.61826117907862 0 0,0 -0.6604212594691212,0.7167568423708676 l -25.985571506622293 -24.36002058486977" fill="#7cff26" stroke="none" /><path d="M 115.32070863581623 114.36230785411682 l 23.75035706829076 22.264632006809133 a53.554466656204625,53.554466656204625 0 0,0 -0.6362613607198511,0.6671174929753653 l -23.36358915619195 -22.670156616367006" fill="#a2ff22" stroke="none" /><path d="M 115.07121518719521 114.62390073753431 l 23.733655051695024 23.029238936867724 a54.07011079697486,54.07011079697486 0 0,0 -0.6538862638656034,0.6623833330495468 l -23.333728162773884 -23.434362763897933" fill="#9bff22" stroke="none" /><path d="M 114.0293411484842 115.62618273729858 l 19.79399304466025 22.04697634358238 a50.62889344114186,50.62889344114186 0 0,0 -0.6534927967190003,0.5766314127998992 l -19.41155789503466 -22.384430898154566" fill="#c8ff1d" stroke="none" /><path d="M 113.20401910651253 116.32954008644616 l 24.369147540886452 30.137564057685623 a59.757297625100186,59.757297625100186 0 0,0 -0.8054216832497065,0.6398756965041457 l -23.846768364919395 -30.552573668194896" fill="#56ff2a" stroke="none" /><line stroke="#e1ed5e" stroke-width="0.3" x1="143.8653032363475" x2="146.44561519142675" y1="172.8068346515853" y2="177.08958963109032" /><path d="M 144.38136562736335 173.6633856474863 a86.0,86.0 0 0,1 -40.68145358897372,12.25698825130547" fill="none" id="id6" stroke="none" /><text fill="#e1ed5e" style="font-size:6.75px; font-family:Arial;" text-anchor="middle"><textPath startOffset="21.466115282336833" xlink:href="#id6">June</textPath></text><path d="M 109.89434966115114 118.52300852407294 l 12.953838685628119 24.25061500863104 a48.49353132993499,48.49353132993499 0 0,0 -0.7396628215997422,0.38695662963713273 l -12.53448496150188 -24.47000105721289" fill="#e5ff1a" stroke="none" /><path d="M 109.2508944713604 118.85261126421891 l 13.256654818874656 27.016042690564355 a51.09327931025777,51.09327931025777 0 0,0 -0.792888213216134,0.3806345260811169 l -12.78965393765829 -27.24023149314503" fill="#c2ff1e" stroke="none" /><path d="M 108.59647513512805 119.15986991738527 l 11.334388126188614 25.262145085899245 a48.68834282755306,48.68834282755306 0 0,0 -0.7676049378751578,0.33649544693474537 l -10.897862513655703 -25.453505086128445" fill="#e2ff1b" stroke="none" /><path d="M 106.57524785965236 119.94407469862006 l 10.484099597690705 31.800423343306623 a54.48407485936888,54.48407485936888 0 0,0 -0.8932240003118109,0.2859821178156038 l -9.935154252287955 -31.976178307781932" fill="#96ff23" stroke="none" /><line stroke="#e1ed5e" stroke-width="0.3" x1="102.19456741930631" x2="102.32365962044197" y1="184.97166512339345" y2="189.96999836594603" /><path d="M 102.22038585953345 185.97133177190398 a86.0,86.0 0 0,1 -42.740103519485714,-10.115201625700543" fill="none" id="id7" stroke="none" /><text fill="#e1ed5e" style="font-size:6.75px; font-family:Arial;" text-anchor="middle"><textPath startOffset="22.20632615414155" xlink:href="#id7">July</textPath></text><line stroke="#e1ed5e" stroke-width="0.3" x1="58.666819895761336" x2="56.23545636021788" y1="174.27360380694188" y2="178.64263932499728" /><path d="M 58.180547188652646 175.14741091055294 a86.0,86.0 0 0,1 -31.652253787137756,-30.449443065178592" fill="none" id="id8" stroke="none" /><text fill="#e1ed5e" style="font-size:6.75px; font-family:Arial;" text-anchor="middle"><textPath startOffset="22.20632615414155" xlink:href="#id8">August</textPath></text><line stroke="#e1ed5e" stroke-width="0.3" x1="26.63291911575756" x2="22.317208475507996" y1="142.92168965132927" y2="145.44649492493687" /><path d="M 25.769776987707644 143.4266507060508 a86.0,86.0 0 0,1 -11.730757126820373,-40.83630448921669" fill="none" id="id9" stroke="none" /><text fill="#e1ed5e" style="font-size:6.75px; font-family:Arial;" text-anchor="middle"><textPath startOffset="21.46611528233685" xlink:href="#id9">September</textPath></text><path d="M 80.58989483394504 108.01547362559985 l -19.76451813659443 8.161829752659774 a42.38344317651328,42.38344317651328 0 0,0 -0.272661541519881,-0.6767235852420687 l 19.9020822923717 -7.820406799574899" fill="#ffc312" stroke="none" /><path d="M 80.0844068197444 106.66101706037122 l -12.320773649731327 4.120835504874442 a33.991641489286394,33.991641489286394 0 0,0 -0.18081570262051666,-0.556493511217941 l 12.389881603368094 -3.9081430936786967" fill="#ff4206" stroke="none" /><path d="M 79.29508885075956 103.50808413554451 l -8.839103618038326 1.4976311152154773 a29.965079571742784,29.965079571742784 0 0,0 -0.08178789483222006,-0.509293299192884 l 8.863573267231837 -1.3452585863293791" fill="#ff0000" stroke="none" /><path d="M 79.07016306316243 101.71520430193888 l -19.733527422720947 1.6171664991955739 a40.79968009916827,40.79968009916827 0 0,0 -0.05133656921972655,-0.7004466999089838 l 19.758440550605005 -1.2772466627898293" fill="#ffac0f" stroke="none" /><line stroke="#e1ed5e" stroke-width="0.3" x1="15.007084014347285" x2="10.007500721073583" y1="101.09737516637583" y2="101.16192664675087" /><path d="M 14.007167355692545 101.11028546245083 a86.0,86.0 0 0,1 10.666146001902526,-42.60595125391555" fill="none" id="id10" stroke="none" /><text fill="#e1ed5e" style="font-size:6.75px; font-family:Arial;" text-anchor="middle"><textPath startOffset="22.20632615414155" xlink:href="#id10">October</textPath></text><line stroke="#e1ed5e" stroke-width="0.3" x1="26.266209847984243" x2="21.928928074336255" y1="57.71137044288968" y2="55.22380399835378" /><path d="M 25.398753493254645 57.2138571539825 a86.0,86.0 0 0,1 29.58750427330803,-30.4925239686951" fill="none" id="id11" stroke="none" /><text fill="#e1ed5e" style="font-size:6.75px; font-family:Arial;" text-anchor="middle"><textPath startOffset="21.46611528233685" xlink:href="#id11">November</textPath></text><line stroke="#e1ed5e" stroke-width="0.3" x1="56.76296977257108" x2="54.21961505331056" y1="26.818313649435495" y2="22.513508569990535" /><path d="M 56.25429882871898 25.957352633546506 a86.0,86.0 0 0,1 42.26535254187918,-11.944610805530505" fill="none" id="id12" stroke="none" /><text fill="#e1ed5e" style="font-size:6.75px; font-family:Arial;" text-anchor="middle"><textPath startOffset="22.20632615414155" xlink:href="#id12">December</textPath></text></svg>